<?xml version="1.0" standalone="no"?>
<!DOCTYPE svg PUBLIC "-//W3C//DTD SVG 20010904//EN"
 "http://www.w3.org/TR/2001/REC-SVG-20010904/DTD/svg10.dtd">
<svg version="1.0" xmlns="http://www.w3.org/2000/svg"
 width="764.000000pt" height="774.000000pt" viewBox="0 0 764.000000 774.000000"
 preserveAspectRatio="xMidYMid meet">

<g transform="translate(0.000000,774.000000) scale(0.100000,-0.100000)"
fill="#000000" stroke="none">
<path d="M0 3870 l0 -3870 3820 0 3820 0 0 3870 0 3870 -3820 0 -3820 0 0
-3870z m3951 2701 c222 -122 279 -155 279 -163 0 -5 0 -116 0 -247 l0 -240
-57 -34 c-32 -19 -80 -47 -108 -62 -27 -15 -95 -56 -151 -91 -55 -35 -104 -64
-107 -64 -9 0 -213 116 -248 141 -15 10 -30 19 -33 19 -3 0 -37 20 -76 45
l-70 46 0 245 0 244 73 47 c52 34 338 190 353 193 1 0 66 -36 145 -79z m-772
-919 c36 -22 127 -75 201 -119 74 -44 230 -130 345 -193 116 -62 229 -126 253
-141 24 -16 44 -29 46 -29 3 0 187 -109 236 -139 8 -6 56 -33 105 -62 50 -29
102 -61 117 -71 l28 -19 0 -809 0 -808 -61 -36 c-33 -20 -63 -36 -66 -36 -8 0
-189 -102 -387 -218 -99 -58 -185 -105 -191 -105 -5 0 -98 51 -205 115 -107
63 -261 150 -342 194 l-147 79 -1 407 0 406 -137 83 c-75 45 -158 94 -183 108
-26 14 -126 71 -223 126 l-177 100 0 405 0 406 103 53 c208 110 306 163 452
250 83 50 154 90 159 90 5 1 39 -16 75 -37z m2218 -1590 c70 -44 163 -98 206
-121 42 -24 77 -46 78 -49 1 -4 2 -114 4 -245 l3 -238 -37 -23 c-42 -26 -281
-169 -296 -176 -5 -3 -29 -17 -52 -32 -24 -16 -44 -28 -46 -28 -6 0 -235 133
-332 192 l-90 55 -3 249 -2 249 72 44 c151 92 343 201 355 201 6 0 69 -35 140
-78z m-2949 -2092 c35 -16 47 -29 67 -72 14 -29 25 -69 25 -90 l0 -36 -52 -7
c-29 -3 -61 -9 -70 -11 -13 -4 -18 0 -18 13 0 10 -5 35 -11 56 -9 32 -14 37
-40 37 -22 0 -32 -6 -39 -25 -20 -52 -2 -84 110 -194 85 -85 110 -116 123
-155 32 -94 17 -176 -43 -232 -77 -74 -224 -72 -303 4 -29 28 -57 105 -57 158
l0 32 66 7 c36 4 67 5 69 3 2 -1 9 -28 17 -58 11 -45 18 -56 40 -64 37 -13 58
6 58 53 0 46 -26 88 -87 143 -132 118 -162 166 -163 257 0 65 29 132 69 160
60 43 169 53 239 21z m362 -315 l0 -325 90 0 90 0 0 -60 0 -60 -175 0 -175 0
0 385 0 385 85 0 85 0 0 -325z m560 318 c0 -9 126 -690 136 -735 l6 -28 -80 0
-80 0 -12 80 -12 80 -59 0 c-48 0 -59 -3 -59 -17 0 -9 -5 -45 -11 -80 l-11
-63 -79 0 c-43 0 -79 3 -79 7 0 4 32 175 70 379 39 205 70 375 70 378 0 3 45
6 100 6 55 0 100 -3 100 -7z m820 -23 c33 -18 51 -38 69 -74 23 -45 25 -63 29
-230 7 -279 -14 -362 -100 -408 -38 -20 -61 -23 -200 -26 l-158 -4 0 387 0
387 158 -4 c145 -3 160 -5 202 -28z m370 -355 l0 -385 -85 0 -85 0 0 385 0
385 85 0 85 0 0 -385z m238 303 c25 -176 66 -418 69 -415 3 4 73 468 73 487 0
6 32 10 80 10 78 0 80 -1 75 -22 -8 -34 -135 -729 -135 -740 0 -5 -41 -7 -92
-6 l-92 3 -67 370 c-38 204 -68 376 -69 383 0 8 21 12 73 12 l73 0 12 -82z
m722 22 l0 -59 -87 -3 c-77 -3 -88 -5 -87 -20 1 -10 2 -52 3 -93 l1 -75 65 0
66 0 -3 -57 -3 -58 -61 -3 c-73 -3 -70 1 -66 -129 l3 -93 85 0 84 0 0 -60 0
-60 -175 0 -175 0 0 385 0 385 175 0 175 0 0 -60z"/>
<path d="M3277 3969 c7 -7 15 -10 18 -7 3 3 -2 9 -12 12 -14 6 -15 5 -6 -5z"/>
<path d="M4285 3950 c-3 -6 1 -7 9 -4 18 7 21 14 7 14 -6 0 -13 -4 -16 -10z"/>
<path d="M3340 3937 c13 -13 113 -67 117 -63 3 3 -19 17 -49 33 -59 31 -76 38
-68 30z"/>
<path d="M4175 3889 c-49 -28 -94 -56 -100 -62 -12 -12 141 70 176 95 44 31
15 18 -76 -33z"/>
<path d="M3500 3845 c0 -2 15 -12 33 -20 l32 -16 -25 20 c-24 20 -40 26 -40
16z"/>
<path d="M3267 1730 c-8 -20 -36 -243 -32 -250 2 -3 20 -7 39 -8 42 -3 41 -14
17 153 -10 66 -20 113 -24 105z"/>
<path d="M4000 1595 l0 -265 35 0 c22 0 43 8 55 20 19 19 20 33 20 245 0 212
-1 226 -20 245 -12 12 -33 20 -55 20 l-35 0 0 -265z"/>
</g>
</svg>
